HIERARCHY
ROOT Hips
{
	OFFSET -3.958830 18.904000 13.208200
	CHANNELS 6 Xposition Yposition Zposition Zrotation Yrotation Xrotation 
	JOINT LHipJoint
	{
		OFFSET 0.000000 0.000000 0.000000
		CHANNELS 3 Zrotation Yrotation Xrotation
		JOINT LeftUpLeg
		{
			OFFSET 1.800000 -1.400000 0.085000
			CHANNELS 3 Zrotation Yrotation Xrotation
			JOINT LeftLeg
			{
				OFFSET 2.215000 -6.000000 0.000000
				CHANNELS 3 Zrotation Yrotation Xrotation
				JOINT LeftFoot
				{
					OFFSET 2.500000 -6.900000 0.000000
					CHANNELS 3 Zrotation Yrotation Xrotation
					JOINT LeftToeBase
					{
						OFFSET 0.200000 -0.500000 1.950000
						CHANNELS 3 Zrotation Yrotation Xrotation
						End Site
						{
							OFFSET 0.000000 0.000000 0.000000
						}
					}
				}
			}
		}
	}
	JOINT RHipJoint
	{
		OFFSET 0.000000 0.000000 0.000000
		CHANNELS 3 Zrotation Yrotation Xrotation
		JOINT RightUpLeg
		{
			OFFSET -1.800000 -1.400000 0.085000
			CHANNELS 3 Zrotation Yrotation Xrotation
			JOINT RightLeg
			{
				OFFSET -2.215000 -6.000000 0.000000
				CHANNELS 3 Zrotation Yrotation Xrotation
				JOINT RightFoot
				{
					OFFSET -2.500000 -6.900000 0.000000
					CHANNELS 3 Zrotation Yrotation Xrotation
					JOINT RightToeBase
					{
						OFFSET -0.200000 -0.500000 1.950000
						CHANNELS 3 Zrotation Yrotation Xrotation
						End Site
						{
							OFFSET 0.000000 0.000000 0.000000
						}
					}
				}
			}
		}
	}
	JOINT LowerBack
	{
		OFFSET 0.000000 0.000000 0.000000
		CHANNELS 3 Zrotation Yrotation Xrotation
		JOINT Spine
		{
			OFFSET -0.087000 1.940000 -0.288900
			CHANNELS 3 Zrotation Yrotation Xrotation
			JOINT Spine1
			{
				OFFSET 0.000000 1.950000 0.060000
				CHANNELS 3 Zrotation Yrotation Xrotation
				JOINT Neck
				{
					OFFSET 0.000000 0.000000 0.000000
					CHANNELS 3 Zrotation Yrotation Xrotation
					JOINT Neck1
					{
						OFFSET 0.000000 1.600000 0.340000
						CHANNELS 3 Zrotation Yrotation Xrotation
						JOINT Head
						{
							OFFSET 0.000000 1.667000 -0.240000
							CHANNELS 3 Zrotation Yrotation Xrotation
							End Site
							{
								OFFSET 0.000000 0.000000 0.000000
							}
						}
					}
				}
				JOINT LeftShoulder
				{
					OFFSET 0.000000 0.000000 0.000000
					CHANNELS 3 Zrotation Yrotation Xrotation
					JOINT LeftArm
					{
						OFFSET 2.700000 1.550000 -0.730000
						CHANNELS 3 Zrotation Yrotation Xrotation
						JOINT LeftForeArm
						{
							OFFSET 5.450000 0.000000 0.000000
							CHANNELS 3 Zrotation Yrotation Xrotation
							JOINT LeftHand
							{
								OFFSET 3.450000 0.000000 0.000000
								CHANNELS 3 Zrotation Yrotation Xrotation
								JOINT LeftHandIndex1
								{
									OFFSET 0.750000 0.000000 0.000000
									CHANNELS 3 Zrotation Yrotation Xrotation
									End Site
									{
										OFFSET 0.000000 0.000000 0.000000
									}
								}
							}
						}
					}
				}
				JOINT RightShoulder
				{
					OFFSET 0.000000 0.000000 0.000000
					CHANNELS 3 Zrotation Yrotation Xrotation
					JOINT RightArm
					{
						OFFSET -2.700000 1.550000 -0.730000
						CHANNELS 3 Zrotation Yrotation Xrotation
						JOINT RightForeArm
						{
							OFFSET -5.450000 0.000000 0.000000
							CHANNELS 3 Zrotation Yrotation Xrotation
							JOINT RightHand
							{
								OFFSET -3.450000 0.000000 0.000000
								CHANNELS 3 Zrotation Yrotation Xrotation
								JOINT RightHandIndex1
								{
									OFFSET -0.750000 0.000000 0.000000
									CHANNELS 3 Zrotation Yrotation Xrotation
									End Site
									{
										OFFSET 0.000000 0.000000 0.000000
									}
								}
							}
						}
					}
				}
			}
		}
	}
}
MOTION
Frames: 14
Frame Time: 0.016667
-0.380850 15.778370 -8.315420 -6.725434 -5.148585 0.928757 -15.872058 10.394191 5.780009 20.052151 -18.857813 -33.131963 -24.968785 31.319780 69.746516 2.355728 15.765111 -0.705145 0.919880 0.559410 1.008670 18.155174 -7.047965 4.605510 8.612058 12.688753 -52.889506 5.558003 -7.276039 41.574945 -1.056261 -4.455665 2.643307 0.059570 -0.638140 0.187200 -2.449311 -3.314015 -10.047259 -5.663916 -1.967340 62.326055 6.264398 2.331049 -12.806772 -2.409539 8.499673 -17.871047 18.165270 -22.914785 52.822135 26.531000 -6.969180 -30.616400 -15.262538 -22.016135 10.158559 -63.668048 10.491989 -24.089458 -70.914774 -37.490488 14.071613 -2.819120 3.267148 1.253420 -0.604400 0.760620 0.078900 17.373067 20.178498 9.281360 60.291535 -14.769321 -22.460382 22.001413 11.279004 -2.387881 2.339329 -0.998723 0.063120 -0.063850 -0.501290 -0.447700 
-0.366310 15.685910 -8.261140 -7.251954 -6.202481 -2.399137 -15.848199 10.622561 5.602046 19.481188 -19.338536 -29.249997 -23.992670 31.633542 71.846388 2.448125 15.956548 -0.752995 0.949270 0.631540 1.027780 18.132142 -7.136084 4.540747 8.525558 12.376385 -51.498461 6.617865 -9.013402 45.796828 -1.305927 -5.423634 2.316753 0.079420 -0.645100 0.206450 -2.447339 -3.546871 -10.010335 -5.303461 -2.444697 67.507338 5.072156 2.778706 -12.715775 -2.197545 7.615700 -17.900935 16.512377 -22.220537 54.554404 27.645980 -4.526470 -33.525930 -15.455998 -21.203920 10.307752 -64.070121 12.452068 -25.005525 -77.962568 -43.866412 21.557768 -2.791688 3.294818 1.283490 -0.622660 0.825880 0.085540 17.014694 20.479034 9.684713 60.974294 -16.697564 -25.419461 25.558241 15.383684 -2.306059 2.291114 -0.989760 0.083420 -0.045080 -0.518460 -0.435470 
-0.313890 15.623020 -8.188460 -8.113969 -7.160296 -6.536800 -15.724369 11.041728 5.230941 16.847904 -19.213736 -23.081111 -20.713807 29.958924 74.078166 2.398867 15.853111 -0.749557 0.914070 0.592640 1.006400 18.148493 -7.558674 4.408956 7.954252 11.459549 -48.018108 8.481464 -11.007399 48.045544 -1.484845 -6.178390 2.048661 0.058140 -0.626790 0.234560 -2.621646 -3.455144 -9.857663 -3.683335 -4.867713 73.506355 1.566902 2.164570 -13.001796 -1.835295 6.174537 -17.541822 14.129797 -20.943663 56.579164 29.153840 -2.848560 -35.738620 -16.875502 -19.338017 10.306314 -63.422098 16.237428 -25.763551 -88.579096 -49.588136 31.890421 -2.806442 3.329422 1.327970 -0.630690 0.842370 0.051040 17.222084 20.192967 9.998932 61.426986 -18.383765 -28.522593 30.530101 21.238480 -1.470896 2.228700 -0.992832 0.069700 -0.043090 -0.465270 -0.443940 
-0.288860 15.555440 -8.148170 -8.330525 -8.818508 -7.881024 -15.640457 11.129929 4.983132 14.470466 -18.875133 -19.766144 -18.940504 28.815449 74.900189 2.421281 15.777192 -0.671257 0.820210 0.488680 0.968720 18.200596 -7.790308 4.458720 8.907659 11.473451 -47.455979 7.766372 -11.524741 50.400059 -1.554720 -6.677364 1.910572 -0.000370 -0.556540 0.263580 -2.806763 -3.077250 -9.763994 -3.740962 -6.290221 77.083347 -1.046686 0.534313 -14.673112 -1.735691 6.558599 -16.176897 15.517941 -20.890340 52.174848 26.250160 -1.431690 -34.246460 -17.902951 -13.986505 9.775198 -63.289647 21.106718 -25.296485 -102.197838 -55.896954 48.605562 -2.898150 3.354469 1.285230 -0.553820 0.800180 0.035420 16.944562 15.142743 8.956954 61.921599 -20.582207 -30.845551 39.659490 28.811976 1.286696 2.192218 -1.090854 0.043900 -0.051170 -0.425420 -0.444330 
-0.257430 15.525120 -8.113830 -8.600298 -10.458103 -8.012586 -15.540438 11.180227 4.763466 12.048968 -17.987084 -17.872681 -16.411474 27.265649 75.883403 2.426256 15.670154 -0.564950 0.683620 0.322070 0.882810 18.278844 -7.988873 4.600137 9.809906 11.961226 -47.357137 6.740366 -11.369941 51.451930 -1.528495 -6.835769 1.900436 -0.091180 -0.458750 0.273110 -3.053619 -2.615134 -9.728432 -2.296272 -7.970536 79.081721 -3.531404 -0.565492 -17.743046 -1.440782 6.041192 -14.121053 13.353765 -19.904065 50.643456 24.639330 -2.340090 -33.049610 -18.339593 -7.188287 7.685220 -61.971743 22.486901 -23.026773 -104.449729 -59.482158 56.597348 -2.995450 3.299909 1.245620 -0.482660 0.726090 0.022410 16.312185 8.956422 7.932142 61.749074 -23.443064 -31.129766 49.888103 33.556412 5.148676 2.187992 -1.152568 -0.001560 -0.035110 -0.359160 -0.432350 
-0.228810 15.543400 -8.093570 -8.868460 -10.318725 -7.600733 -15.450704 11.331218 4.575629 9.651076 -17.324710 -16.910460 -13.056091 24.536216 76.615796 2.400225 15.274513 -0.388400 0.526150 0.167640 0.788680 18.332727 -8.257322 4.612436 9.728688 11.573430 -46.973030 6.880838 -11.328261 50.158807 -1.401581 -6.649909 2.021365 -0.197430 -0.383990 0.262000 -3.238686 -2.299776 -9.620762 0.038154 -9.886618 80.517531 -6.148407 -1.400103 -21.453215 -0.493321 6.133564 -11.762472 11.825117 -19.991446 48.811481 22.384140 -3.670840 -31.791960 -19.595431 -0.161686 4.695541 -56.958285 21.273359 -18.696282 -103.190582 -62.254295 61.444798 -3.133533 3.234291 1.155600 -0.403250 0.645850 -0.006350 15.769791 1.587353 7.104285 61.539190 -27.650074 -30.321694 60.099130 37.505192 10.286626 2.187623 -1.203472 -0.019320 -0.035350 -0.302280 -0.410480 
-0.197010 15.627540 -8.093800 -9.286141 -10.960231 -7.039563 -15.352997 11.531537 4.387656 8.187594 -15.993851 -15.864558 -11.161711 22.181789 74.924344 2.308804 14.617279 -0.185580 0.486430 0.137130 0.738710 18.381277 -8.541874 4.598776 10.086744 11.281289 -45.264511 7.001562 -10.595408 46.755331 -1.246895 -5.991835 2.262766 -0.243620 -0.374710 0.279050 -3.424162 -2.020368 -9.497903 1.987987 -10.993672 80.797629 -8.188968 -2.578259 -22.894598 0.964139 5.462483 -9.725982 9.086653 -18.291799 49.407352 20.831060 -3.719900 -32.534910 -21.544364 4.252179 2.433079 -53.553075 19.797617 -17.018305 -105.309143 -67.229479 69.838484 -3.198734 3.116882 1.108450 -0.391120 0.631230 0.009920 15.714353 -3.357621 6.282955 60.667528 -28.885371 -28.546810 67.654706 39.364449 14.397670 2.216502 -1.300945 0.010910 -0.069670 -0.306380 -0.376990 
-0.176270 15.735860 -8.134340 -9.997676 -10.317303 -6.006648 -15.314143 11.818564 4.259727 7.473464 -15.204060 -16.120179 -8.691780 19.253931 73.565218 2.174531 13.899428 0.078938 0.471470 0.140820 0.712640 18.377717 -8.714671 4.523145 10.749049 10.663525 -43.582908 6.941858 -9.523836 41.832370 -1.053912 -5.002710 2.660199 -0.262190 -0.312260 0.259070 -3.450936 -2.162923 -9.371099 3.393696 -12.273236 80.806319 -8.769827 -3.561019 -23.175443 2.298016 4.667783 -8.250735 6.502561 -16.584145 48.493371 18.168300 -3.165760 -34.239720 -22.958282 6.604443 0.780686 -52.625797 18.256177 -17.408764 -109.126693 -72.809937 80.264380 -3.273406 2.604319 1.076620 -0.371730 0.621420 0.073230 15.163548 -6.200669 5.809462 59.973207 -28.268146 -26.837668 75.062680 41.478417 19.020187 2.232639 -1.364705 0.003000 0.008320 -0.332910 -0.333760 
-0.182690 15.856210 -8.172040 -9.857088 -10.855461 -5.012641 -15.289418 12.148456 4.062522 6.920086 -13.445909 -15.610007 -7.403185 17.288306 70.159202 1.986734 13.105453 0.309092 0.456540 0.106090 0.689100 18.359672 -8.833132 4.521167 11.695197 10.608015 -41.245035 5.787841 -7.668695 36.357627 -0.826224 -3.865266 3.065071 -0.293240 -0.302680 0.281120 -3.432262 -2.355100 -9.248971 3.386519 -11.162017 80.458446 -7.920467 -3.455445 -23.258392 2.925028 3.498046 -7.762034 3.205854 -14.629957 47.782046 15.188430 -3.407430 -34.775050 -23.970800 7.114236 -0.122406 -51.923378 17.680306 -19.211807 -114.561520 -76.294341 91.074183 -3.212621 2.134792 1.061390 -0.369940 0.609180 0.092690 15.630204 -6.470646 6.157073 60.196064 -28.406247 -26.369471 84.439632 45.665342 26.154137 2.247758 -1.462987 0.016850 -0.002070 -0.328620 -0.315840 
-0.220380 16.001950 -8.227230 -8.653636 -10.879633 -3.421366 -15.306692 12.555803 3.930425 6.034293 -11.937648 -15.787290 -6.147340 15.135969 65.769488 1.805087 12.127928 0.634167 0.389100 -0.004220 0.642510 18.293091 -8.939697 4.426049 12.301571 9.853253 -39.056279 3.784157 -5.463808 29.101938 -0.524571 -2.521037 3.573208 -0.368110 -0.257510 0.279820 -3.281379 -2.802976 -9.113314 1.143087 -8.428546 80.311910 -4.651146 -2.603080 -25.502515 2.627804 1.665543 -7.300426 -0.763558 -11.887919 45.873486 13.272890 -4.051470 -32.786480 -22.834758 9.667434 -1.148332 -52.707936 16.760811 -19.259576 -110.368723 -80.255994 93.096421 -3.249498 1.236410 1.005550 -0.350490 0.549460 0.108830 15.609752 -7.588740 6.014065 56.207112 -28.469612 -23.331973 93.198168 47.255758 33.025392 2.311701 -1.575041 0.016760 -0.018560 -0.320100 -0.286330 
-0.221230 16.137890 -8.296430 -7.473236 -9.498759 -1.099162 -15.260321 12.715535 3.925850 4.840767 -11.458104 -17.290349 -4.968153 12.987113 62.052993 1.575874 11.259725 0.935654 0.279540 -0.166250 0.507140 18.301360 -9.147405 4.261572 11.823139 8.532639 -38.475282 2.566693 -4.112594 21.912708 -0.234471 -1.555347 3.972664 -0.428220 -0.139080 0.257380 -3.357257 -2.827793 -8.964150 0.524559 -8.913432 78.704505 -2.835917 -3.842125 -27.057923 1.884797 -1.209073 -5.885609 -5.985685 -9.285374 41.183600 12.813850 -6.520350 -28.637150 -18.876597 15.316811 -2.559640 -53.138979 15.063477 -15.664057 -100.894037 -83.968102 88.450890 -3.506511 -0.003695 0.922140 -0.286040 0.404300 0.127110 13.436281 -12.151748 4.703652 52.641799 -26.723667 -19.063569 99.671044 48.438630 40.599802 2.316238 -1.706350 -0.027970 -0.009950 -0.253700 -0.246660 
-0.205710 16.287290 -8.364970 -5.721936 -8.964668 0.615514 -15.161058 12.756345 3.870847 2.710404 -10.564109 -17.597839 -4.036343 11.218034 57.464147 1.324532 10.241795 1.261445 0.223980 -0.243400 0.414630 18.347355 -9.552877 4.092846 10.428101 7.075252 -37.547281 2.178184 -3.297347 15.175322 -0.057535 -0.979044 4.227197 -0.452210 -0.064630 0.250470 -3.552069 -2.290434 -8.794436 -0.338386 -9.022265 75.809131 -3.050024 -6.174717 -26.565574 1.790468 -1.866649 -4.871156 -6.782328 -7.794615 38.628049 11.306980 -7.212230 -25.705040 -18.323826 17.412036 -2.541300 -49.526041 13.916634 -13.057646 150.437376 -88.366920 -154.345913 -3.121320 3.480171 0.855060 -0.233060 0.306680 0.139210 13.438369 -15.133559 3.280187 51.394578 -24.060560 -16.348175 105.238315 51.709141 49.663874 2.342604 -1.750060 -0.042880 -0.008230 -0.202480 -0.220490 
-0.179510 16.432780 -8.419070 -4.804259 -9.048775 2.524023 -15.057424 12.722162 3.715696 1.651938 -9.283241 -17.538773 -3.965236 10.138837 52.010313 1.034218 9.176465 1.569520 0.199550 -0.278820 0.363450 18.413391 -9.881038 4.076880 9.561903 6.438753 -37.455027 1.886091 -2.921980 11.352347 0.030725 -0.803490 4.307341 -0.447480 -0.036800 0.250380 -3.777667 -1.599992 -8.653149 0.266206 -9.353564 71.406703 -5.274910 -8.159617 -25.478216 1.850307 -0.778658 -3.810389 -4.223258 -6.773581 37.997934 8.519720 -6.032160 -22.284860 -18.088563 18.021291 -3.114756 -44.986364 12.511952 -9.689492 94.935456 -82.331212 -84.203553 -3.106916 -2.058946 0.805380 -0.187830 0.236310 0.129040 13.093807 -17.375718 2.839089 53.091471 -22.813081 -15.462239 111.183806 56.099797 60.231992 2.365021 -1.698597 -0.050350 -0.030920 -0.157130 -0.224250 
-0.139760 16.574040 -8.469250 -4.992571 -8.448860 4.604910 -15.038346 12.859939 3.575059 1.825621 -8.242159 -18.203394 -3.796319 9.207602 47.293376 0.775059 8.265673 1.854164 0.162970 -0.344640 0.325270 18.410414 -9.901263 4.128131 8.651981 6.520340 -37.916260 2.301487 -2.867583 10.512977 0.091262 -0.804367 4.324183 -0.460330 -0.004380 0.238330 -3.800989 -1.706383 -8.581448 1.541192 -9.904945 68.028511 -5.740650 -8.636509 -24.289527 2.247248 -1.433657 -4.038505 -5.022892 -5.431230 37.054215 5.806610 -5.490300 -19.591380 -17.689953 17.643787 -3.158111 -43.360712 11.273986 -9.680840 95.807803 -77.892784 -75.945271 -2.775162 -1.344454 0.772430 -0.153810 0.164450 0.117200 11.951837 -16.696845 3.355310 54.465894 -20.297295 -15.252412 121.555125 59.875982 75.973575 2.333821 -1.539769 -0.075240 -0.038150 -0.116990 -0.232710 
